<svg xmlns="http://www.w3.org/2000/svg" version="1.1" xmlns:xlink="http://www.w3.org/1999/xlink" xmlns:svgjs="http://svgjs.dev/svgjs" width="1440" height="560" preserveAspectRatio="none" viewBox="0 0 1440 560"><g mask="url(&quot;#SvgjsMask1002&quot;)" fill="none"><rect width="1440" height="560" x="0" y="0" fill="rgba(21, 21, 21, 1)"></rect><path d="M0,413.115C81.733,408.978,157.805,391.063,236.177,367.498C344.079,335.055,496.657,350.66,545.468,249.107C593.969,148.198,483.179,40.917,443.457,-63.76C412.951,-144.151,390.11,-224.646,339.354,-294.052C284.914,-368.496,230.49,-458.424,140.403,-478.17C50.813,-497.807,-25.328,-409.861,-115.624,-393.78C-222.372,-374.769,-346.708,-440.47,-433.817,-375.905C-520.454,-311.691,-544.071,-185.716,-541.803,-77.9C-539.686,22.768,-474.688,106.939,-421.858,192.656C-375.085,268.545,-331.067,350.925,-252.06,392.213C-175.795,432.068,-85.941,417.465,0,413.115" fill="#111111"></path><path d="M1440 1168.837C1556.521 1157.033 1669.025 1132.558 1771.377 1075.633 1878.949 1015.804 1999.993 950.537 2041.108 834.517 2081.721 719.913 2021.335 597.062 1981.705 482.115 1948.32 385.28200000000004 1890.409 304.784 1829.963 222.09500000000003 1763.8609999999999 131.66899999999998 1711.3690000000001 26.57000000000005 1611.551-24.249000000000024 1502.473-79.78300000000002 1370.562-110.49699999999996 1254.8-70.73299999999995 1140.2350000000001-31.380999999999972 1073.034 83.00900000000001 1005.848 183.805 945.554 274.261 907.279 373.674 887.347 480.54 866.685 591.319 860.104 702.765 888.725 811.759 921.387 936.143 954.533 1077.5349999999999 1062.469 1147.449 1170.4470000000001 1217.3899999999999 1312.004 1181.804 1440 1168.837" fill="#191919"></path></g><defs><mask id="SvgjsMask1002"><rect width="1440" height="560" fill="#ffffff"></rect></mask></defs></svg>